<?xml version="1.0" standalone="no"?>
<!DOCTYPE svg PUBLIC "-//W3C//DTD SVG 20010904//EN"
 "http://www.w3.org/TR/2001/REC-SVG-20010904/DTD/svg10.dtd">
<svg version="1.0" xmlns="http://www.w3.org/2000/svg"
 width="1000.000000pt" height="1000.000000pt" viewBox="0 0 1000.000000 1000.000000"
 preserveAspectRatio="xMidYMid meet">
<metadata>
Created by potrace 1.16, written by Peter Selinger 2001-2019
</metadata>
<g transform="translate(0.000000,1000.000000) scale(0.100000,-0.100000)"
fill="#000000" stroke="none">
<path d="M2924 8611 c-103 -27 -207 -119 -243 -216 -19 -51 -21 -77 -21 -329
0 -150 -3 -275 -6 -279 -4 -3 -29 5 -56 19 -28 14 -47 21 -44 15 4 -6 -14 -1
-39 10 -43 19 -53 19 -182 9 -157 -12 -202 -29 -262 -95 -28 -31 -52 -45 -107
-63 -122 -38 -211 -107 -258 -198 -8 -18 -30 -128 -47 -245 -35 -237 -35 -345
-4 -584 49 -372 141 -609 250 -645 28 -9 38 -24 74 -101 107 -230 163 -406
182 -578 21 -186 -4 -367 -111 -788 -90 -355 -110 -466 -117 -638 -9 -227 23
-391 108 -556 103 -199 267 -328 481 -379 105 -25 122 -21 115 29 -7 45 -26
222 -30 281 -3 33 -4 28 -5 -20 -1 -36 3 -96 8 -135 5 -38 7 -71 5 -74 -2 -2
-36 5 -76 14 -257 63 -435 270 -496 575 -22 113 -19 309 7 465 12 72 55 261
95 420 91 359 116 504 116 673 0 245 -46 432 -180 725 -29 63 -30 69 -15 84
18 19 18 27 -20 207 -66 314 -60 581 15 688 l20 27 47 -29 c45 -28 76 -36 170
-45 38 -3 43 -1 37 13 -12 31 -14 53 -4 47 5 -4 7 -11 4 -16 -5 -8 -2 -9 20
-9 3 0 21 -7 41 -15 63 -26 140 -17 247 30 16 7 17 -18 17 -450 0 -294 4 -463
10 -476 15 -28 63 -49 111 -49 33 0 47 6 75 34 l34 34 0 1149 c0 1119 1 1149
20 1180 24 40 53 56 104 56 33 0 45 -6 73 -36 l33 -37 0 -1262 c0 -1182 1
-1265 18 -1298 32 -66 137 -77 194 -20 l28 28 0 1269 c0 1238 1 1269 20 1300
24 40 53 56 104 56 33 0 45 -6 73 -36 l33 -37 0 -1143 c0 -758 3 -1154 10
-1174 32 -92 208 -84 225 10 3 18 5 554 3 1192 l-3 1160 -27 57 c-34 73 -103
142 -176 176 -49 23 -70 27 -147 27 -79 -1 -97 -4 -148 -30 -31 -15 -62 -34
-68 -42 -9 -10 -16 -9 -38 6 -65 46 -115 63 -190 67 -42 2 -90 0 -107 -5z"/>
<path d="M6404 8432 c-5 -4 -18 -18 -27 -32 -16 -23 -17 -98 -17 -972 0 -974
0 -973 -35 -939 -19 18 -120 41 -179 41 -103 0 -192 -37 -265 -111 -141 -140
-148 -372 -16 -518 l37 -41 -76 0 -76 0 0 296 c0 205 -4 302 -12 317 -17 34
-39 46 -80 47 -28 0 -41 -6 -57 -26 -12 -15 -21 -33 -21 -40 0 -19 -5 -18 -48
11 -53 35 -154 59 -215 51 -94 -13 -157 -44 -224 -113 -62 -62 -63 -63 -63
-34 0 46 -79 107 -175 137 l-40 12 26 12 c44 20 49 47 49 247 0 172 1 185 18
178 99 -42 122 -47 197 -47 228 0 397 180 383 407 -9 132 -94 259 -215 321
-54 27 -66 29 -168 29 -101 0 -115 -2 -164 -28 -42 -22 -56 -25 -62 -15 -5 7
-9 16 -9 19 0 11 -50 29 -79 29 -16 0 -40 -11 -55 -25 l-26 -24 0 -526 0 -526
26 -24 27 -25 -29 0 c-16 0 -60 -11 -99 -24 -69 -24 -70 -24 -83 -4 -21 30
-59 40 -99 27 -61 -20 -63 -34 -63 -364 0 -256 -2 -295 -15 -295 -8 0 -15 -4
-15 -10 0 -7 535 -10 1585 -10 1050 0 1585 3 1585 10 0 6 -18 10 -41 10 l-40
0 35 43 c82 101 113 231 82 343 -52 179 -220 299 -395 281 -204 -22 -342 -174
-343 -377 0 -97 28 -172 88 -240 l46 -50 -91 0 -91 0 0 308 c0 336 0 337 -59
362 -44 18 -95 -1 -115 -44 -14 -29 -16 -80 -16 -330 l0 -296 -25 0 -25 0 -2
1271 -3 1271 -24 19 c-23 19 -86 26 -107 11z m-1226 -958 c132 -55 170 -210
76 -314 -57 -63 -116 -81 -205 -63 -51 10 -124 88 -137 146 -33 158 120 292
266 231z m1080 -1161 c50 -41 72 -73 83 -121 22 -99 -48 -209 -146 -230 -178
-38 -311 160 -206 306 42 58 102 84 175 78 45 -3 66 -11 94 -33z m-1432 12
c19 -8 47 -24 61 -35 28 -22 73 -26 105 -9 19 10 19 9 11 -23 -4 -18 -8 -69
-8 -113 0 -96 28 -166 95 -239 l43 -46 -283 0 -282 0 4 174 3 174 30 44 c53
76 143 106 221 73z m597 1 c108 -46 148 -188 79 -280 -94 -124 -292 -86 -332
65 -39 142 116 274 253 215z m1865 -5 c43 -22 63 -43 87 -90 24 -48 17 -137
-16 -185 -29 -43 -108 -86 -158 -86 -78 1 -156 60 -181 136 -27 81 13 184 87
223 50 26 132 27 181 2z"/>
<path d="M7497 7835 c-8 -8 -17 -12 -20 -9 -3 4 -12 2 -19 -2 -7 -5 -21 -10
-31 -11 -35 -6 -82 -36 -134 -89 -30 -30 -65 -57 -78 -60 -55 -14 -60 -31 -65
-233 -6 -209 -13 -235 -77 -283 -87 -66 -195 -38 -251 67 -13 24 -18 70 -22
217 -5 174 -7 189 -26 209 -32 32 -92 29 -122 -6 -23 -28 -23 -30 -20 -234 3
-200 4 -208 30 -264 37 -80 118 -158 191 -185 89 -34 180 -29 280 13 15 6 17
1 17 -41 -1 -115 -91 -214 -195 -214 -48 0 -100 23 -146 65 -49 44 -97 48
-134 10 -62 -61 -13 -155 113 -217 62 -31 74 -33 167 -33 90 0 106 3 155 28
116 59 189 160 211 293 l12 70 55 -28 c81 -43 278 -63 371 -38 20 5 48 11 62
14 14 3 43 17 64 31 43 30 42 31 81 -51 60 -126 53 -371 -20 -706 -21 -95 -22
-110 -9 -136 13 -28 12 -35 -30 -128 -107 -237 -155 -420 -163 -624 -8 -185
16 -339 116 -738 89 -358 108 -457 117 -623 19 -366 -129 -668 -387 -788 -61
-29 -171 -63 -179 -55 -2 1 2 56 8 121 13 145 16 251 8 260 -4 3 -7 -31 -7
-76 0 -79 -25 -348 -36 -383 -13 -42 151 -7 276 58 171 89 296 247 364 460 38
121 49 196 49 354 0 168 -22 314 -84 558 -22 86 -53 209 -70 274 -75 295 -98
555 -64 733 28 151 102 360 186 527 24 47 37 60 72 76 96 43 178 249 227 570
10 70 24 191 30 270 10 133 9 153 -14 305 -13 89 -28 187 -31 217 -10 81 -41
143 -95 194 -52 49 -140 97 -210 116 -31 8 -59 26 -88 56 -23 24 -56 51 -72
59 -76 40 -333 61 -363 30z"/>
<path d="M5804 7670 c-113 -24 -215 -104 -266 -208 -31 -62 -33 -74 -33 -167
0 -87 3 -107 27 -157 73 -157 252 -251 417 -218 123 23 226 104 279 218 38 80
43 203 12 285 -39 105 -128 195 -228 230 -58 21 -153 29 -208 17z m157 -135
c64 -22 113 -67 145 -131 23 -48 26 -63 22 -125 -5 -58 -11 -78 -38 -118 -68
-99 -166 -132 -283 -97 -181 54 -236 281 -101 412 71 69 163 90 255 59z"/>
<path d="M4167 7660 c-156 -27 -287 -167 -303 -326 -12 -111 39 -241 124 -315
66 -59 135 -83 238 -83 86 -1 96 1 162 35 l71 37 6 -28 c14 -63 92 -85 141
-39 l24 22 0 329 0 329 -25 24 c-47 48 -125 25 -141 -40 -6 -23 -8 -24 -23
-11 -29 27 -124 64 -176 69 -27 2 -72 1 -98 -3z m114 -181 c109 -37 167 -153
126 -252 -19 -45 -89 -105 -132 -113 -159 -29 -282 119 -216 261 23 50 58 83
108 100 47 17 71 18 114 4z"/>
<path d="M6945 5273 c-132 -18 -267 -67 -738 -267 -203 -86 -371 -156 -374
-156 -2 0 -1 5 2 10 20 32 -58 6 -371 -124 -192 -79 -414 -170 -494 -203
l-145 -58 -3 -46 c-2 -29 5 -66 17 -100 11 -29 19 -54 18 -55 -1 -2 -38 -16
-82 -32 l-79 -29 -110 72 c-469 305 -972 555 -1312 651 -119 33 -133 35 -180
25 -127 -29 -237 -159 -327 -386 -70 -176 -123 -397 -147 -610 -6 -55 -13
-113 -15 -130 -7 -57 -8 -155 -2 -162 4 -3 7 16 7 44 0 70 17 238 36 358 62
391 199 716 347 825 23 17 65 37 92 46 49 14 55 13 177 -20 175 -48 357 -122
608 -248 249 -124 395 -206 646 -364 l182 -114 211 77 c115 42 208 80 205 84
-3 5 1 6 9 4 7 -3 90 21 184 54 206 72 528 173 750 236 241 68 837 215 871
215 152 0 286 -169 386 -488 29 -92 71 -293 81 -387 4 -33 9 -71 11 -85 2 -14
7 -89 11 -168 3 -79 9 -139 13 -135 8 9 -4 211 -20 358 -26 229 -98 502 -172
649 -89 178 -192 266 -312 266 -80 0 -927 -222 -1311 -344 -60 -19 -110 -34
-112 -32 -1 1 79 38 178 81 196 86 220 99 214 118 -3 8 54 37 158 81 89 38
241 105 337 149 387 176 466 202 630 201 139 0 185 -17 263 -97 85 -86 132
-204 167 -412 25 -150 25 -181 0 -212 -60 -76 15 -207 104 -182 86 24 108 150
36 210 -30 25 -30 28 -50 201 -23 202 -47 307 -91 395 -87 178 -278 267 -504
236z m258 -32 c207 -71 296 -247 332 -651 11 -120 14 -130 50 -165 30 -28 35
-39 35 -79 0 -106 -118 -146 -165 -56 -21 41 -19 82 8 121 l23 34 -18 130
c-43 306 -123 465 -269 541 -46 24 -69 28 -155 32 -159 7 -264 -24 -594 -175
-128 -59 -492 -219 -566 -250 -7 -2 -10 -12 -8 -21 4 -13 -26 -30 -143 -81
-81 -36 -209 -91 -283 -124 -144 -63 -291 -120 -296 -114 -2 1 47 24 109 51
161 69 591 258 595 261 2 2 -6 20 -18 41 -11 22 -23 55 -26 75 l-6 37 -72 -30
c-102 -42 -684 -282 -791 -326 -49 -20 -93 -41 -97 -47 -10 -14 0 -71 23 -122
10 -24 14 -43 10 -43 -18 0 -52 101 -49 143 l3 42 380 156 c209 85 430 176
490 202 85 35 111 42 113 31 2 -8 9 -14 17 -14 7 0 193 76 412 169 415 176
543 222 671 245 97 17 212 12 285 -13z"/>
<path d="M6880 5230 c-113 -24 -218 -62 -505 -184 -132 -57 -309 -131 -392
-166 -89 -38 -153 -70 -153 -78 0 -7 7 -26 15 -42 l15 -29 237 103 c131 57
310 136 398 176 392 179 582 203 749 97 128 -81 201 -246 243 -553 16 -117 16
-125 0 -136 -37 -28 -39 -98 -5 -138 21 -24 80 -27 102 -5 39 39 31 117 -15
143 -36 21 -36 20 -49 172 -14 157 -34 274 -61 353 -85 252 -284 351 -579 287z"/>
<path d="M3065 4861 c-163 -75 -310 -439 -372 -916 -30 -237 -22 -842 13 -967
4 -14 16 -18 55 -18 58 0 55 -12 32 153 -21 152 -23 562 -5 722 52 445 175
841 310 995 49 56 39 65 -33 31z"/>
<path d="M3242 4845 c2 -3 297 -162 654 -355 548 -295 650 -347 656 -332 13
32 8 47 -20 63 -15 9 -88 54 -162 99 -244 150 -575 325 -770 408 -160 68 -382
140 -358 117z"/>
<path d="M3154 4786 c-30 -31 -54 -60 -54 -66 0 -6 28 -24 63 -39 34 -16 150
-68 257 -116 236 -106 612 -275 890 -401 202 -91 205 -92 217 -71 7 12 12 25
13 29 0 3 -53 34 -117 69 -65 34 -350 187 -633 339 -283 152 -530 285 -549
294 l-33 18 -54 -56z"/>
<path d="M6880 4788 c-36 -8 -58 -23 -110 -77 -138 -141 -242 -441 -296 -851
-27 -211 -27 -755 1 -877 l5 -23 419 0 418 0 12 93 c55 425 29 925 -65 1260
-77 273 -166 424 -280 472 -41 17 -41 17 -104 3z"/>
<path d="M6622 4725 c-29 -7 -59 -21 -67 -31 -27 -35 -113 -219 -139 -295 -36
-106 -81 -295 -100 -414 -46 -292 -55 -699 -21 -967 l7 -58 55 0 54 0 -5 33
c-22 141 -30 449 -17 642 31 462 133 858 267 1048 47 65 49 63 -34 42z"/>
<path d="M3044 4616 c-19 -41 -34 -81 -34 -89 0 -9 251 -114 732 -305 402
-160 733 -290 735 -288 8 8 35 117 31 122 -11 10 -1403 634 -1416 634 -7 0
-29 -33 -48 -74z"/>
<path d="M6195 4615 c-372 -101 -706 -208 -1147 -365 -165 -59 -178 -66 -188
-94 -5 -16 -8 -31 -6 -33 3 -4 1567 535 1575 543 15 14 -29 5 -234 -51z"/>
<path d="M6160 4555 c-146 -52 -429 -150 -630 -220 -201 -69 -438 -151 -527
-182 -121 -42 -164 -61 -169 -76 -3 -10 -4 -20 -2 -22 1 -2 349 92 772 209
524 144 771 217 774 226 4 14 59 134 69 153 8 14 -23 4 -287 -88z"/>
<path d="M2997 4492 c-8 -13 -69 -234 -65 -237 2 -2 233 -62 513 -135 609
-157 699 -181 874 -226 138 -37 151 -36 151 6 0 11 -208 98 -703 295 -386 153
-716 285 -734 292 -18 7 -34 9 -36 5z"/>
<path d="M5735 4284 c-324 -90 -665 -184 -756 -209 l-165 -46 -12 -45 c-20
-74 -20 -74 46 -58 56 14 1127 242 1332 284 58 12 108 25 112 29 4 4 19 45 33
91 14 47 28 93 31 103 4 12 0 17 -13 16 -10 -1 -283 -75 -608 -165z"/>
<path d="M2921 4216 c-12 -31 -45 -215 -40 -219 2 -2 128 -25 279 -50 151 -26
496 -85 765 -132 270 -47 495 -85 501 -85 11 0 37 100 28 109 -2 2 -346 93
-765 201 -740 191 -761 196 -768 176z"/>
<path d="M5920 4139 c-201 -43 -437 -94 -525 -113 -88 -19 -262 -56 -387 -82
-190 -40 -229 -51 -234 -67 -11 -36 -113 -43 899 62 313 33 571 62 574 64 6 7
45 208 41 212 -2 1 -167 -33 -368 -76z"/>
<path d="M4600 4103 c-41 -107 -88 -317 -100 -443 -18 -183 0 -382 56 -627
l16 -73 84 0 c46 0 84 1 84 3 0 1 -11 56 -24 122 -77 381 -64 660 44 979 16
47 26 86 22 86 -3 0 -25 -7 -49 -16 -40 -16 -43 -15 -77 5 l-34 22 -22 -58z"/>
<path d="M2862 3886 c-7 -52 -12 -112 -12 -134 l0 -39 158 -7 c86 -3 211 -9
277 -11 66 -3 172 -7 235 -10 63 -3 176 -7 250 -10 74 -3 185 -7 245 -10 61
-3 178 -8 261 -11 l151 -6 6 28 c3 16 4 30 3 32 -4 3 -147 28 -926 162 -322
55 -597 103 -611 105 -26 6 -26 6 -37 -89z"/>
<path d="M6165 3973 c-41 -5 -1383 -143 -1394 -143 -5 0 -12 -21 -16 -47 -3
-27 -9 -58 -12 -71 -5 -23 -5 -23 63 -18 38 3 146 8 239 11 369 12 1168 44
1171 47 2 2 8 46 14 98 6 52 13 103 16 113 6 18 -8 20 -81 10z"/>
<path d="M5905 3719 c-99 -4 -261 -10 -360 -13 -99 -4 -279 -11 -400 -16 -121
-5 -261 -10 -312 -11 l-91 -2 -4 -29 c-3 -16 -2 -30 1 -32 8 -5 278 -22 811
-51 151 -8 360 -20 463 -26 104 -6 190 -10 191 -8 2 2 6 48 9 102 l5 97 -66
-2 c-37 0 -148 -4 -247 -9z"/>
<path d="M2840 3520 l0 -172 128 6 c70 4 163 9 207 11 164 9 275 15 460 25
105 5 233 12 285 15 272 16 448 25 477 25 l31 0 0 100 0 100 -41 1 c-23 1 -53
3 -67 4 -13 1 -110 6 -215 9 -104 4 -345 13 -535 21 -190 8 -432 18 -537 21
l-193 7 0 -173z"/>
<path d="M4732 3518 l3 -72 310 -67 c171 -37 500 -108 733 -158 232 -50 425
-91 430 -91 5 0 4 371 -1 376 -3 3 -139 13 -247 19 -164 8 -798 44 -975 55
-88 6 -182 10 -208 10 l-48 0 3 -72z"/>
<path d="M4736 3404 c1 -15 6 -30 11 -34 7 -6 414 -129 1165 -350 170 -50 251
-66 314 -61 7 1 7 23 1 74 -6 39 -11 73 -12 74 -1 3 -779 171 -1210 263 -132
28 -247 53 -256 56 -13 3 -16 -2 -13 -22z"/>
<path d="M4115 3399 c-66 -4 -259 -15 -430 -24 -170 -8 -348 -18 -395 -20 -47
-3 -121 -7 -165 -10 -291 -16 -285 -16 -285 -39 1 -40 29 -258 34 -263 3 -3
74 7 158 21 240 42 1056 181 1238 212 91 15 166 28 168 30 2 1 0 25 -4 53 l-7
51 -96 -1 c-53 -1 -150 -5 -216 -10z"/>
<path d="M4741 3329 c0 -13 8 -66 17 -118 l17 -94 235 -75 235 -76 402 -5
c221 -3 399 -3 395 0 -4 3 -293 91 -642 194 -349 103 -641 190 -647 193 -8 2
-13 -5 -12 -19z"/>
<path d="M4295 3265 c-71 -13 -305 -53 -520 -90 -214 -37 -504 -87 -644 -111
-140 -24 -255 -44 -256 -44 -1 0 0 -13 3 -30 l4 -30 563 0 563 0 228 80 c125
44 229 81 230 83 2 1 -3 39 -11 82 -8 44 -14 81 -15 83 0 3 7 4 -145 -23z"/>
<path d="M4258 3032 c-103 -37 -186 -67 -185 -69 1 -1 72 -3 157 -4 151 -2
156 -2 209 25 50 26 53 29 47 58 -3 17 -6 37 -6 44 0 22 -23 16 -222 -54z"/>
<path d="M4785 3072 c9 -36 7 -35 112 -76 88 -34 99 -36 205 -35 l113 1 -60
19 c-33 11 -131 42 -218 69 l-159 48 7 -26z"/>
<path d="M2320 2880 c0 -20 7 -20 2740 -20 2733 0 2740 0 2740 20 0 20 -7 20
-2740 20 -2733 0 -2740 0 -2740 -20z"/>
<path d="M2320 2750 l0 -31 153 3 152 3 3 28 3 27 -155 0 -156 0 0 -30z"/>
<path d="M2690 2750 l0 -30 155 0 155 0 0 30 0 30 -155 0 -155 0 0 -30z"/>
<path d="M3060 2750 l0 -31 153 3 152 3 3 28 3 27 -155 0 -156 0 0 -30z"/>
<path d="M3430 2750 l0 -31 153 3 152 3 3 28 3 27 -155 0 -156 0 0 -30z"/>
<path d="M3800 2750 l0 -31 153 3 152 3 3 28 3 27 -155 0 -156 0 0 -30z"/>
<path d="M4170 2750 l0 -31 153 3 152 3 3 28 3 27 -155 0 -156 0 0 -30z"/>
<path d="M4540 2750 l0 -30 150 0 150 0 0 30 0 30 -150 0 -150 0 0 -30z"/>
<path d="M4910 2750 l0 -30 150 0 150 0 0 30 0 30 -150 0 -150 0 0 -30z"/>
<path d="M5280 2750 l0 -30 150 0 150 0 0 30 0 30 -150 0 -150 0 0 -30z"/>
<path d="M5650 2750 l0 -30 150 0 150 0 0 30 0 30 -150 0 -150 0 0 -30z"/>
<path d="M6020 2750 l0 -30 150 0 150 0 0 30 0 30 -150 0 -150 0 0 -30z"/>
<path d="M6390 2750 l0 -30 150 0 150 0 0 30 0 30 -150 0 -150 0 0 -30z"/>
<path d="M6760 2750 l0 -30 150 0 150 0 0 30 0 30 -150 0 -150 0 0 -30z"/>
<path d="M7130 2750 l0 -30 150 0 150 0 0 30 0 30 -150 0 -150 0 0 -30z"/>
<path d="M7500 2750 l0 -30 150 0 150 0 0 30 0 30 -150 0 -150 0 0 -30z"/>
<path d="M2320 2675 l0 -25 155 0 155 0 0 25 0 25 -155 0 -155 0 0 -25z"/>
<path d="M2690 2675 l0 -25 155 0 155 0 0 25 0 25 -155 0 -155 0 0 -25z"/>
<path d="M3060 2675 l0 -25 155 0 155 0 0 25 0 25 -155 0 -155 0 0 -25z"/>
<path d="M3430 2675 l0 -25 155 0 155 0 0 25 0 25 -155 0 -155 0 0 -25z"/>
<path d="M3800 2675 l0 -25 155 0 155 0 0 25 0 25 -155 0 -155 0 0 -25z"/>
<path d="M4170 2675 l0 -25 155 0 155 0 0 25 0 25 -155 0 -155 0 0 -25z"/>
<path d="M2690 2595 l0 -25 155 0 155 0 0 25 0 25 -155 0 -155 0 0 -25z"/>
<path d="M3060 2595 l0 -25 155 0 155 0 0 25 0 25 -155 0 -155 0 0 -25z"/>
<path d="M3430 2595 l0 -25 155 0 155 0 0 25 0 25 -155 0 -155 0 0 -25z"/>
<path d="M3800 2595 l0 -25 155 0 155 0 0 25 0 25 -155 0 -155 0 0 -25z"/>
<path d="M4170 2595 l0 -25 155 0 155 0 0 25 0 25 -155 0 -155 0 0 -25z"/>
<path d="M2690 2520 l0 -30 156 0 155 0 -3 28 -3 27 -152 3 -153 3 0 -31z"/>
<path d="M3060 2520 l0 -30 155 0 155 0 0 30 0 30 -155 0 -155 0 0 -30z"/>
<path d="M3430 2520 l0 -30 156 0 155 0 -3 28 -3 27 -152 3 -153 3 0 -31z"/>
<path d="M3800 2520 l0 -30 156 0 155 0 -3 28 -3 27 -152 3 -153 3 0 -31z"/>
<path d="M4170 2520 l0 -30 156 0 155 0 -3 28 -3 27 -152 3 -153 3 0 -31z"/>
<path d="M4540 2520 l0 -30 150 0 150 0 0 30 0 30 -150 0 -150 0 0 -30z"/>
<path d="M4910 2520 l0 -30 150 0 150 0 0 30 0 30 -150 0 -150 0 0 -30z"/>
<path d="M5280 2520 l0 -30 150 0 150 0 0 30 0 30 -150 0 -150 0 0 -30z"/>
<path d="M5650 2520 l0 -30 150 0 150 0 0 30 0 30 -150 0 -150 0 0 -30z"/>
<path d="M6027 2543 c-4 -3 -7 -17 -7 -30 l0 -23 150 0 150 0 0 30 0 30 -143
0 c-79 0 -147 -3 -150 -7z"/>
<path d="M6390 2520 l0 -30 150 0 150 0 0 30 0 30 -150 0 -150 0 0 -30z"/>
<path d="M6760 2520 l0 -30 150 0 150 0 0 30 0 30 -150 0 -150 0 0 -30z"/>
<path d="M7130 2520 l0 -30 150 0 150 0 0 30 0 30 -150 0 -150 0 0 -30z"/>
<path d="M3060 2440 l0 -30 155 0 155 0 0 30 0 30 -155 0 -155 0 0 -30z"/>
<path d="M3430 2440 l0 -31 153 3 152 3 3 28 3 27 -155 0 -156 0 0 -30z"/>
<path d="M3800 2440 l0 -31 153 3 152 3 3 28 3 27 -155 0 -156 0 0 -30z"/>
<path d="M4170 2440 l0 -31 153 3 152 3 3 28 3 27 -155 0 -156 0 0 -30z"/>
<path d="M4540 2440 l0 -30 150 0 150 0 0 30 0 30 -150 0 -150 0 0 -30z"/>
<path d="M4910 2440 l0 -30 150 0 150 0 0 30 0 30 -150 0 -150 0 0 -30z"/>
<path d="M5280 2440 l0 -30 150 0 150 0 0 30 0 30 -150 0 -150 0 0 -30z"/>
<path d="M5650 2440 l0 -30 150 0 150 0 0 30 0 30 -150 0 -150 0 0 -30z"/>
<path d="M6020 2440 l0 -30 150 0 150 0 0 30 0 30 -150 0 -150 0 0 -30z"/>
<path d="M6390 2440 l0 -30 150 0 150 0 0 30 0 30 -150 0 -150 0 0 -30z"/>
<path d="M7130 2440 l0 -30 150 0 150 0 0 30 0 30 -150 0 -150 0 0 -30z"/>
<path d="M3060 2365 l0 -25 155 0 155 0 0 25 0 25 -155 0 -155 0 0 -25z"/>
<path d="M3430 2365 l0 -25 155 0 155 0 0 25 0 25 -155 0 -155 0 0 -25z"/>
<path d="M3800 2365 l0 -25 155 0 155 0 0 25 0 25 -155 0 -155 0 0 -25z"/>
<path d="M4170 2365 l0 -25 155 0 155 0 0 25 0 25 -155 0 -155 0 0 -25z"/>
<path d="M3060 2290 l0 -30 156 0 155 0 -3 28 -3 27 -152 3 -153 3 0 -31z"/>
<path d="M3430 2290 l0 -30 156 0 155 0 -3 28 -3 27 -152 3 -153 3 0 -31z"/>
<path d="M3800 2290 l0 -30 156 0 155 0 -3 28 -3 27 -152 3 -153 3 0 -31z"/>
<path d="M4170 2290 l0 -30 156 0 155 0 -3 28 -3 27 -152 3 -153 3 0 -31z"/>
<path d="M4540 2290 l0 -30 150 0 150 0 0 30 0 30 -150 0 -150 0 0 -30z"/>
<path d="M4910 2290 l0 -30 150 0 150 0 0 30 0 30 -150 0 -150 0 0 -30z"/>
<path d="M5280 2290 l0 -30 150 0 150 0 0 30 0 30 -150 0 -150 0 0 -30z"/>
<path d="M5650 2290 l0 -30 150 0 150 0 0 30 0 30 -150 0 -150 0 0 -30z"/>
<path d="M6020 2290 l0 -30 150 0 150 0 0 30 0 30 -150 0 -150 0 0 -30z"/>
<path d="M6390 2290 l0 -30 150 0 150 0 0 30 0 30 -150 0 -150 0 0 -30z"/>
<path d="M3060 2210 l0 -31 153 3 152 3 3 28 3 27 -155 0 -156 0 0 -30z"/>
<path d="M3430 2210 l0 -31 153 3 152 3 3 28 3 27 -155 0 -156 0 0 -30z"/>
<path d="M3800 2210 l0 -31 153 3 152 3 3 28 3 27 -155 0 -156 0 0 -30z"/>
<path d="M4170 2210 l0 -31 153 3 152 3 3 28 3 27 -155 0 -156 0 0 -30z"/>
<path d="M4540 2210 l0 -30 150 0 150 0 0 30 0 30 -150 0 -150 0 0 -30z"/>
<path d="M4910 2210 l0 -30 150 0 150 0 0 30 0 30 -150 0 -150 0 0 -30z"/>
<path d="M5280 2210 l0 -30 150 0 150 0 0 30 0 30 -150 0 -150 0 0 -30z"/>
<path d="M5650 2210 l0 -30 150 0 150 0 0 30 0 30 -150 0 -150 0 0 -30z"/>
<path d="M6022 2213 l3 -28 148 -3 147 -3 0 31 0 30 -151 0 -150 0 3 -27z"/>
<path d="M6390 2210 l0 -30 150 0 150 0 0 30 0 30 -150 0 -150 0 0 -30z"/>
<path d="M3060 2135 l0 -25 155 0 155 0 0 25 0 25 -155 0 -155 0 0 -25z"/>
<path d="M3430 2135 l0 -25 155 0 155 0 0 25 0 25 -155 0 -155 0 0 -25z"/>
<path d="M4170 2135 l0 -25 155 0 155 0 0 25 0 25 -155 0 -155 0 0 -25z"/>
<path d="M3430 2055 l0 -25 155 0 155 0 0 25 0 25 -155 0 -155 0 0 -25z"/>
<path d="M4170 2055 l0 -25 155 0 155 0 0 25 0 25 -155 0 -155 0 0 -25z"/>
<path d="M4170 1980 l0 -30 156 0 155 0 -3 28 -3 27 -152 3 -153 3 0 -31z"/>
<path d="M4540 1980 l0 -30 150 0 150 0 0 30 0 30 -150 0 -150 0 0 -30z"/>
<path d="M5280 1980 l0 -30 150 0 150 0 0 30 0 30 -150 0 -150 0 0 -30z"/>
<path d="M6027 2003 c-4 -3 -7 -17 -7 -30 l0 -23 150 0 150 0 0 30 0 30 -143
0 c-79 0 -147 -3 -150 -7z"/>
<path d="M4170 1900 l0 -31 153 3 152 3 3 28 3 27 -155 0 -156 0 0 -30z"/>
<path d="M4540 1900 l0 -30 150 0 150 0 0 30 0 30 -150 0 -150 0 0 -30z"/>
<path d="M5280 1900 l0 -30 150 0 150 0 0 30 0 30 -150 0 -150 0 0 -30z"/>
<path d="M6022 1903 l3 -28 148 -3 147 -3 0 31 0 30 -151 0 -150 0 3 -27z"/>
<path d="M4170 1825 l0 -25 155 0 155 0 0 25 0 25 -155 0 -155 0 0 -25z"/>
<path d="M4170 1745 l0 -25 155 0 155 0 0 25 0 25 -155 0 -155 0 0 -25z"/>
<path d="M4170 1670 l0 -30 156 0 155 0 -3 28 -3 27 -152 3 -153 3 0 -31z"/>
</g>
</svg>
